<?xml version="1.0" encoding="UTF-8" standalone="no"?>
<!DOCTYPE svg PUBLIC "-//W3C//DTD SVG 1.1//EN" "http://www.w3.org/Graphics/SVG/1.1/DTD/svg11.dtd">
<svg width="100%" height="100%" viewBox="0 0 596 842" version="1.1" xmlns="http://www.w3.org/2000/svg" xmlns:xlink="http://www.w3.org/1999/xlink" xml:space="preserve" xmlns:serif="http://www.serif.com/" style="fill-rule:evenodd;clip-rule:evenodd;stroke-linejoin:round;stroke-miterlimit:2;">
    <g id="g4" transform="matrix(0.332594,0,0,0.270335,230.923,0)">
        <rect id="rect2" x="0" y="0" width="173.014" height="173.014" style="fill:rgb(227,95,92);"/>
    </g>
    <g id="g8" transform="matrix(0.332594,0,0,0.270335,0.75,0)">
        <rect id="rect6" x="0" y="0" width="173.014" height="173.014" style="fill:rgb(255,235,238);"/>
    </g>
    <g id="g12" transform="matrix(0.332594,0,0,0.270335,58.2933,0)">
        <rect id="rect10" x="0" y="0" width="173.014" height="173.014" style="fill:rgb(255,205,210);"/>
    </g>
    <g id="g16" transform="matrix(0.332594,0,0,0.270335,115.837,0)">
        <rect id="rect14" x="0" y="0" width="173.014" height="173.014" style="fill:rgb(239,154,154);"/>
    </g>
    <g id="g20" transform="matrix(0.332594,0,0,0.270335,173.38,0)">
        <rect id="rect18" x="0" y="0" width="173.014" height="173.014" style="fill:rgb(229,115,115);"/>
    </g>
    <g transform="matrix(0.332594,0,0,0.270335,298.04,7.01951e-05)">
        <g id="g24">
            <rect id="rect22" x="0" y="0" width="173.014" height="173.014" style="fill:rgb(219,68,55);"/>
        </g>
    </g>
    <g id="g28" transform="matrix(0.332594,0,0,0.270335,365.102,0)">
        <rect id="rect26" x="0" y="0" width="173.014" height="173.014" style="fill:rgb(211,48,44);"/>
    </g>
    <g id="g32" transform="matrix(0.332594,0,0,0.270335,422.646,0)">
        <rect id="rect30" x="0" y="0" width="173.014" height="173.014" style="fill:rgb(198,42,42);"/>
    </g>
    <g id="g36" transform="matrix(0.332594,0,0,0.270335,480.189,0)">
        <rect id="rect34" x="0" y="0" width="173.014" height="173.014" style="fill:rgb(178,36,36);"/>
    </g>
    <g id="g40" transform="matrix(0.332594,0,0,0.270335,537.732,0)">
        <rect id="rect38" x="0" y="0" width="173.014" height="173.014" style="fill:rgb(155,24,24);"/>
    </g>
    <g id="g44" transform="matrix(0.332594,0,0,0.270335,230.923,46.7716)">
        <rect id="rect42" x="0" y="0" width="173.014" height="173.014" style="fill:rgb(228,129,162);"/>
    </g>
    <g id="g48" transform="matrix(0.332594,0,0,0.270335,0,46.7716)">
        <rect id="rect46" x="0" y="0" width="173.014" height="173.014" style="fill:rgb(252,228,236);"/>
    </g>
    <g id="g52" transform="matrix(0.332594,0,0,0.270335,58.2933,46.7716)">
        <rect id="rect50" x="0" y="0" width="173.014" height="173.014" style="fill:rgb(249,195,213);"/>
    </g>
    <g id="g56" transform="matrix(0.332594,0,0,0.270335,115.837,46.7716)">
        <rect id="rect54" x="0" y="0" width="173.014" height="173.014" style="fill:rgb(242,166,192);"/>
    </g>
    <g id="g60" transform="matrix(0.332594,0,0,0.270335,173.38,46.7716)">
        <rect id="rect58" x="0" y="0" width="173.014" height="173.014" style="fill:rgb(237,151,180);"/>
    </g>
    <g transform="matrix(0.332594,0,0,0.270335,298.04,46.7717)">
        <g id="g64">
            <rect id="rect62" x="0" y="0" width="173.014" height="173.014" style="fill:rgb(215,89,139);"/>
        </g>
    </g>
    <g id="g68" transform="matrix(0.332594,0,0,0.270335,365.102,46.7716)">
        <rect id="rect66" x="0" y="0" width="173.014" height="173.014" style="fill:rgb(209,71,122);"/>
    </g>
    <g id="g72" transform="matrix(0.332594,0,0,0.270335,422.646,46.7716)">
        <rect id="rect70" x="0" y="0" width="173.014" height="173.014" style="fill:rgb(202,47,109);"/>
    </g>
    <g id="g76" transform="matrix(0.332594,0,0,0.270335,480.189,46.7716)">
        <rect id="rect74" x="0" y="0" width="173.014" height="173.014" style="fill:rgb(179,35,98);"/>
    </g>
    <g id="g80" transform="matrix(0.332594,0,0,0.270335,537.732,46.7716)">
        <rect id="rect78" x="0" y="0" width="173.014" height="173.014" style="fill:rgb(149,24,91);"/>
    </g>
    <g id="g84" transform="matrix(0.332594,0,0,0.270335,230.923,93.5433)">
        <rect id="rect82" x="0" y="0" width="173.014" height="173.014" style="fill:rgb(165,79,180);"/>
    </g>
    <g id="g88" transform="matrix(0.332594,0,0,0.270335,0,93.5433)">
        <rect id="rect86" x="0" y="0" width="173.014" height="173.014" style="fill:rgb(243,229,245);"/>
    </g>
    <g id="g92" transform="matrix(0.332594,0,0,0.270335,58.2933,93.5433)">
        <rect id="rect90" x="0" y="0" width="173.014" height="173.014" style="fill:rgb(225,190,231);"/>
    </g>
    <g id="g96" transform="matrix(0.332594,0,0,0.270335,115.837,93.5433)">
        <rect id="rect94" x="0" y="0" width="173.014" height="173.014" style="fill:rgb(202,152,211);"/>
    </g>
    <g id="g100" transform="matrix(0.332594,0,0,0.270335,173.38,93.5433)">
        <rect id="rect98" x="0" y="0" width="173.014" height="173.014" style="fill:rgb(181,111,193);"/>
    </g>
    <g transform="matrix(0.332594,0,0,0.270335,298.04,93.5434)">
        <g id="g104">
            <rect id="rect102" x="0" y="0" width="173.014" height="173.014" style="fill:rgb(149,49,166);"/>
        </g>
    </g>
    <g id="g108" transform="matrix(0.332594,0,0,0.270335,365.102,93.5433)">
        <rect id="rect106" x="0" y="0" width="173.014" height="173.014" style="fill:rgb(136,46,160);"/>
    </g>
    <g id="g112" transform="matrix(0.332594,0,0,0.270335,422.646,93.5433)">
        <rect id="rect110" x="0" y="0" width="173.014" height="173.014" style="fill:rgb(119,41,152);"/>
    </g>
    <g id="g116" transform="matrix(0.332594,0,0,0.270335,480.189,93.5433)">
        <rect id="rect114" x="0" y="0" width="173.014" height="173.014" style="fill:rgb(104,37,144);"/>
    </g>
    <g id="g120" transform="matrix(0.332594,0,0,0.270335,537.732,93.5433)">
        <rect id="rect118" x="0" y="0" width="173.014" height="173.014" style="fill:rgb(75,29,131);"/>
    </g>
    <g id="g124" transform="matrix(0.332594,0,0,0.270335,230.923,140.315)">
        <rect id="rect122" x="0" y="0" width="173.014" height="173.014" style="fill:rgb(123,76,205);"/>
    </g>
    <g id="g128" transform="matrix(0.332594,0,0,0.270335,0,140.315)">
        <rect id="rect126" x="0" y="0" width="173.014" height="173.014" style="fill:rgb(237,231,246);"/>
    </g>
    <g id="g132" transform="matrix(0.332594,0,0,0.270335,58.2933,140.315)">
        <rect id="rect130" x="0" y="0" width="173.014" height="173.014" style="fill:rgb(209,196,233);"/>
    </g>
    <g id="g136" transform="matrix(0.332594,0,0,0.270335,115.837,140.315)">
        <rect id="rect134" x="0" y="0" width="173.014" height="173.014" style="fill:rgb(178,155,222);"/>
    </g>
    <g id="g140" transform="matrix(0.332594,0,0,0.270335,173.38,140.315)">
        <rect id="rect138" x="0" y="0" width="173.014" height="173.014" style="fill:rgb(147,111,211);"/>
    </g>
    <g transform="matrix(0.332594,0,0,0.270335,298.04,140.315)">
        <g id="g144">
            <rect id="rect142" x="0" y="0" width="173.014" height="173.014" style="fill:rgb(114,65,221);"/>
        </g>
    </g>
    <g id="g148" transform="matrix(0.332594,0,0,0.270335,365.102,140.315)">
        <rect id="rect146" x="0" y="0" width="173.014" height="173.014" style="fill:rgb(102,51,204);"/>
    </g>
    <g id="g152" transform="matrix(0.332594,0,0,0.270335,422.646,140.315)">
        <rect id="rect150" x="0" y="0" width="173.014" height="173.014" style="fill:rgb(89,50,185);"/>
    </g>
    <g id="g156" transform="matrix(0.332594,0,0,0.270335,480.189,140.315)">
        <rect id="rect154" x="0" y="0" width="173.014" height="173.014" style="fill:rgb(81,42,172);"/>
    </g>
    <g id="g160" transform="matrix(0.332594,0,0,0.270335,537.732,140.315)">
        <rect id="rect158" x="0" y="0" width="173.014" height="173.014" style="fill:rgb(66,29,159);"/>
    </g>
    <g id="g164" transform="matrix(0.332594,0,0,0.270335,230.923,187.087)">
        <rect id="rect162" x="0" y="0" width="173.014" height="173.014" style="fill:rgb(100,112,184);"/>
    </g>
    <g id="g168" transform="matrix(0.332594,0,0,0.270335,0,187.087)">
        <rect id="rect166" x="0" y="0" width="173.014" height="173.014" style="fill:rgb(232,234,246);"/>
    </g>
    <g id="g172" transform="matrix(0.332594,0,0,0.270335,58.2933,187.087)">
        <rect id="rect170" x="0" y="0" width="173.014" height="173.014" style="fill:rgb(197,202,233);"/>
    </g>
    <g id="g176" transform="matrix(0.332594,0,0,0.270335,115.837,187.087)">
        <rect id="rect174" x="0" y="0" width="173.014" height="173.014" style="fill:rgb(164,171,213);"/>
    </g>
    <g id="g180" transform="matrix(0.332594,0,0,0.270335,173.38,187.087)">
        <rect id="rect178" x="0" y="0" width="173.014" height="173.014" style="fill:rgb(127,138,197);"/>
    </g>
    <g transform="matrix(0.332594,0,0,0.270335,297.929,187.087)">
        <g id="g184">
            <rect id="rect182" x="0" y="0" width="173.014" height="173.014" style="fill:rgb(72,87,172);"/>
        </g>
    </g>
    <g id="g188" transform="matrix(0.332594,0,0,0.270335,365.102,187.087)">
        <rect id="rect186" x="0" y="0" width="173.014" height="173.014" style="fill:rgb(66,79,162);"/>
    </g>
    <g id="g192" transform="matrix(0.332594,0,0,0.270335,422.646,187.087)">
        <rect id="rect190" x="0" y="0" width="173.014" height="173.014" style="fill:rgb(56,69,151);"/>
    </g>
    <g id="g196" transform="matrix(0.332594,0,0,0.270335,480.189,187.087)">
        <rect id="rect194" x="0" y="0" width="173.014" height="173.014" style="fill:rgb(48,59,139);"/>
    </g>
    <g id="g200" transform="matrix(0.332594,0,0,0.270335,537.732,187.087)">
        <rect id="rect198" x="0" y="0" width="173.014" height="173.014" style="fill:rgb(33,41,119);"/>
    </g>
    <g id="g204" transform="matrix(0.332594,0,0,0.270335,230.923,233.858)">
        <rect id="rect202" x="0" y="0" width="173.014" height="173.014" style="fill:rgb(46,130,189);"/>
    </g>
    <g id="g208" transform="matrix(0.332594,0,0,0.270335,0,233.858)">
        <rect id="rect206" x="0" y="0" width="173.014" height="173.014" style="fill:rgb(232,240,246);"/>
    </g>
    <g id="g212" transform="matrix(0.332594,0,0,0.270335,58.2933,233.858)">
        <rect id="rect210" x="0" y="0" width="173.014" height="173.014" style="fill:rgb(173,206,230);"/>
    </g>
    <g id="g216" transform="matrix(0.332594,0,0,0.270335,115.837,233.858)">
        <rect id="rect214" x="0" y="0" width="173.014" height="173.014" style="fill:rgb(145,188,219);"/>
    </g>
    <g id="g220" transform="matrix(0.332594,0,0,0.270335,173.38,233.858)">
        <rect id="rect218" x="0" y="0" width="173.014" height="173.014" style="fill:rgb(82,156,210);"/>
    </g>
    <g id="g224" transform="matrix(0.332594,0,0,0.270335,365.102,233.858)">
        <rect id="rect222" x="0" y="0" width="173.014" height="173.014" style="fill:rgb(28,97,146);"/>
    </g>
    <g id="g228" transform="matrix(0.332594,0,0,0.270335,422.646,233.858)">
        <rect id="rect226" x="0" y="0" width="173.014" height="173.014" style="fill:rgb(24,89,135);"/>
    </g>
    <g id="g232" transform="matrix(0.332594,0,0,0.270335,480.189,233.858)">
        <rect id="rect230" x="0" y="0" width="173.014" height="173.014" style="fill:rgb(19,81,124);"/>
    </g>
    <g id="g236" transform="matrix(0.332594,0,0,0.270335,537.732,233.858)">
        <rect id="rect234" x="0" y="0" width="173.014" height="173.014" style="fill:rgb(12,66,104);"/>
    </g>
    <g transform="matrix(0.332594,0,0,0.270335,297.929,233.858)">
        <g id="g240">
            <rect id="rect238" x="0" y="0" width="173.014" height="173.014" style="fill:rgb(25,108,162);"/>
        </g>
    </g>
    <g id="g244" transform="matrix(0.332594,0,0,0.270335,230.923,280.63)">
        <rect id="rect242" x="0" y="0" width="173.014" height="173.014" style="fill:rgb(98,192,234);"/>
    </g>
    <g id="g248" transform="matrix(0.332594,0,0,0.270335,0,280.63)">
        <rect id="rect246" x="0" y="0" width="173.014" height="173.014" style="fill:rgb(225,245,254);"/>
    </g>
    <g id="g252" transform="matrix(0.332594,0,0,0.270335,58.2933,280.63)">
        <rect id="rect250" x="0" y="0" width="173.014" height="173.014" style="fill:rgb(186,227,245);"/>
    </g>
    <g id="g256" transform="matrix(0.332594,0,0,0.270335,115.837,280.63)">
        <rect id="rect254" x="0" y="0" width="173.014" height="173.014" style="fill:rgb(148,212,241);"/>
    </g>
    <g id="g260" transform="matrix(0.332594,0,0,0.270335,173.38,280.63)">
        <rect id="rect258" x="0" y="0" width="173.014" height="173.014" style="fill:rgb(129,205,238);"/>
    </g>
    <g id="g264" transform="matrix(0.332594,0,0,0.270335,365.102,280.63)">
        <rect id="rect262" x="0" y="0" width="173.014" height="173.014" style="fill:rgb(30,157,219);"/>
    </g>
    <g id="g268" transform="matrix(0.332594,0,0,0.270335,422.646,280.63)">
        <rect id="rect266" x="0" y="0" width="173.014" height="173.014" style="fill:rgb(29,140,200);"/>
    </g>
    <g id="g272" transform="matrix(0.332594,0,0,0.270335,480.189,280.63)">
        <rect id="rect270" x="0" y="0" width="173.014" height="173.014" style="fill:rgb(25,124,183);"/>
    </g>
    <g id="g276" transform="matrix(0.332594,0,0,0.270335,537.732,280.63)">
        <rect id="rect274" x="0" y="0" width="173.014" height="173.014" style="fill:rgb(12,94,159);"/>
    </g>
    <g transform="matrix(0.332594,0,0,0.270335,298.04,280.63)">
        <g id="g280">
            <rect id="rect278" x="0" y="0" width="173.014" height="173.014" style="fill:rgb(66,173,231);"/>
        </g>
    </g>
    <g id="g284" transform="matrix(0.332594,0,0,0.270335,230.923,327.402)">
        <rect id="rect282" x="0" y="0" width="173.014" height="173.014" style="fill:rgb(98,205,234);"/>
    </g>
    <g id="g288" transform="matrix(0.332594,0,0,0.270335,0,327.402)">
        <rect id="rect286" x="0" y="0" width="173.014" height="173.014" style="fill:rgb(225,250,254);"/>
    </g>
    <g id="g292" transform="matrix(0.332594,0,0,0.270335,58.2933,327.402)">
        <rect id="rect290" x="0" y="0" width="173.014" height="173.014" style="fill:rgb(186,235,245);"/>
    </g>
    <g id="g296" transform="matrix(0.332594,0,0,0.270335,115.837,327.402)">
        <rect id="rect294" x="0" y="0" width="173.014" height="173.014" style="fill:rgb(148,224,241);"/>
    </g>
    <g id="g300" transform="matrix(0.332594,0,0,0.270335,173.38,327.402)">
        <rect id="rect298" x="0" y="0" width="173.014" height="173.014" style="fill:rgb(129,215,238);"/>
    </g>
    <g id="g304" transform="matrix(0.332594,0,0,0.270335,365.102,327.402)">
        <rect id="rect302" x="0" y="0" width="173.014" height="173.014" style="fill:rgb(30,175,219);"/>
    </g>
    <g id="g308" transform="matrix(0.332594,0,0,0.270335,422.646,327.402)">
        <rect id="rect306" x="0" y="0" width="173.014" height="173.014" style="fill:rgb(29,163,200);"/>
    </g>
    <g id="g312" transform="matrix(0.332594,0,0,0.270335,480.189,327.402)">
        <rect id="rect310" x="0" y="0" width="173.014" height="173.014" style="fill:rgb(25,149,183);"/>
    </g>
    <g id="g316" transform="matrix(0.332594,0,0,0.270335,537.732,327.402)">
        <rect id="rect314" x="0" y="0" width="173.014" height="173.014" style="fill:rgb(12,127,159);"/>
    </g>
    <g transform="matrix(0.332594,0,0,0.270335,298.04,327.402)">
        <g id="g320">
            <rect id="rect318" x="0" y="0" width="173.014" height="173.014" style="fill:rgb(64,192,231);"/>
        </g>
    </g>
    <g id="g324" transform="matrix(0.332594,0,0,0.270335,230.923,374.173)">
        <rect id="rect322" x="0" y="0" width="173.014" height="173.014" style="fill:rgb(27,187,172);"/>
    </g>
    <g id="g328" transform="matrix(0.332594,0,0,0.270335,0,374.173)">
        <rect id="rect326" x="0" y="0" width="173.014" height="173.014" style="fill:rgb(224,242,241);"/>
    </g>
    <g id="g332" transform="matrix(0.332594,0,0,0.270335,58.2933,374.173)">
        <rect id="rect330" x="0" y="0" width="173.014" height="173.014" style="fill:rgb(177,238,232);"/>
    </g>
    <g id="g336" transform="matrix(0.332594,0,0,0.270335,115.837,374.173)">
        <rect id="rect334" x="0" y="0" width="173.014" height="173.014" style="fill:rgb(93,221,209);"/>
    </g>
    <g id="g340" transform="matrix(0.332594,0,0,0.270335,173.38,374.173)">
        <rect id="rect338" x="0" y="0" width="173.014" height="173.014" style="fill:rgb(29,206,189);"/>
    </g>
    <g id="g344" transform="matrix(0.332594,0,0,0.270335,365.102,374.173)">
        <rect id="rect342" x="0" y="0" width="173.014" height="173.014" style="fill:rgb(11,138,125);"/>
    </g>
    <g id="g348" transform="matrix(0.332594,0,0,0.270335,422.646,374.173)">
        <rect id="rect346" x="0" y="0" width="173.014" height="173.014" style="fill:rgb(4,126,112);"/>
    </g>
    <g id="g352" transform="matrix(0.332594,0,0,0.270335,480.189,374.173)">
        <rect id="rect350" x="0" y="0" width="173.014" height="173.014" style="fill:rgb(4,107,94);"/>
    </g>
    <g id="g356" transform="matrix(0.332594,0,0,0.270335,537.732,374.173)">
        <rect id="rect354" x="0" y="0" width="173.014" height="173.014" style="fill:rgb(0,77,64);"/>
    </g>
    <g transform="matrix(0.332594,0,0,0.270335,298.04,374.173)">
        <g id="g360">
            <rect id="rect358" x="0" y="0" width="173.014" height="173.014" style="fill:rgb(19,171,150);"/>
        </g>
    </g>
    <g id="g364" transform="matrix(0.332594,0,0,0.270335,230.923,420.945)">
        <rect id="rect362" x="0" y="0" width="173.014" height="173.014" style="fill:rgb(142,197,79);"/>
    </g>
    <g id="g368" transform="matrix(0.332594,0,0,0.270335,0,420.945)">
        <rect id="rect366" x="0" y="0" width="173.014" height="173.014" style="fill:rgb(241,248,233);"/>
    </g>
    <g id="g372" transform="matrix(0.332594,0,0,0.270335,58.2933,420.945)">
        <rect id="rect370" x="0" y="0" width="173.014" height="173.014" style="fill:rgb(216,235,194);"/>
    </g>
    <g id="g376" transform="matrix(0.332594,0,0,0.270335,115.837,420.945)">
        <rect id="rect374" x="0" y="0" width="173.014" height="173.014" style="fill:rgb(188,221,152);"/>
    </g>
    <g id="g380" transform="matrix(0.332594,0,0,0.270335,173.38,420.945)">
        <rect id="rect378" x="0" y="0" width="173.014" height="173.014" style="fill:rgb(164,208,113);"/>
    </g>
    <g id="g384" transform="matrix(0.332594,0,0,0.270335,365.102,420.945)">
        <rect id="rect382" x="0" y="0" width="173.014" height="173.014" style="fill:rgb(111,160,59);"/>
    </g>
    <g id="g388" transform="matrix(0.332594,0,0,0.270335,422.646,420.945)">
        <rect id="rect386" x="0" y="0" width="173.014" height="173.014" style="fill:rgb(91,140,49);"/>
    </g>
    <g id="g392" transform="matrix(0.332594,0,0,0.270335,480.189,420.945)">
        <rect id="rect390" x="0" y="0" width="173.014" height="173.014" style="fill:rgb(72,118,40);"/>
    </g>
    <g id="g396" transform="matrix(0.332594,0,0,0.270335,537.732,420.945)">
        <rect id="rect394" x="0" y="0" width="173.014" height="173.014" style="fill:rgb(40,83,24);"/>
    </g>
    <g transform="matrix(0.332594,0,0,0.270335,297.929,420.945)">
        <g id="g400">
            <rect id="rect398" x="0" y="0" width="173.014" height="173.014" style="fill:rgb(124,179,66);"/>
        </g>
    </g>
    <g id="g404" transform="matrix(0.332594,0,0,0.270335,230.923,467.716)">
        <rect id="rect402" x="0" y="0" width="173.014" height="173.014" style="fill:rgb(204,215,97);"/>
    </g>
    <g id="g408" transform="matrix(0.332594,0,0,0.270335,0,467.716)">
        <rect id="rect406" x="0" y="0" width="173.014" height="173.014" style="fill:rgb(248,249,233);"/>
    </g>
    <g id="g412" transform="matrix(0.332594,0,0,0.270335,58.2933,467.716)">
        <rect id="rect410" x="0" y="0" width="173.014" height="173.014" style="fill:rgb(237,240,199);"/>
    </g>
    <g id="g416" transform="matrix(0.332594,0,0,0.270335,115.837,467.716)">
        <rect id="rect414" x="0" y="0" width="173.014" height="173.014" style="fill:rgb(225,232,162);"/>
    </g>
    <g id="g420" transform="matrix(0.332594,0,0,0.270335,173.38,467.716)">
        <rect id="rect418" x="0" y="0" width="173.014" height="173.014" style="fill:rgb(213,222,126);"/>
    </g>
    <g id="g424" transform="matrix(0.332594,0,0,0.270335,365.102,467.716)">
        <rect id="rect422" x="0" y="0" width="173.014" height="173.014" style="fill:rgb(182,191,62);"/>
    </g>
    <g id="g428" transform="matrix(0.332594,0,0,0.270335,422.646,467.716)">
        <rect id="rect426" x="0" y="0" width="173.014" height="173.014" style="fill:rgb(165,169,54);"/>
    </g>
    <g id="g432" transform="matrix(0.332594,0,0,0.270335,480.189,467.716)">
        <rect id="rect430" x="0" y="0" width="173.014" height="173.014" style="fill:rgb(149,148,45);"/>
    </g>
    <g id="g436" transform="matrix(0.332594,0,0,0.270335,537.732,467.716)">
        <rect id="rect434" x="0" y="0" width="173.014" height="173.014" style="fill:rgb(122,113,31);"/>
    </g>
    <g transform="matrix(0.332594,0,0,0.270335,298.04,467.717)">
        <g id="g440">
            <rect id="rect438" x="0" y="0" width="173.014" height="173.014" style="fill:rgb(189,207,70);"/>
        </g>
    </g>
    <g id="g444" transform="matrix(0.332594,0,0,0.270335,230.923,514.488)">
        <rect id="rect442" x="0" y="0" width="173.014" height="173.014" style="fill:rgb(255,240,112);"/>
    </g>
    <g id="g448" transform="matrix(0.332594,0,0,0.270335,0,514.488)">
        <rect id="rect446" x="0" y="0" width="173.014" height="173.014" style="fill:rgb(255,253,231);"/>
    </g>
    <g id="g452" transform="matrix(0.332594,0,0,0.270335,58.2933,514.488)">
        <rect id="rect450" x="0" y="0" width="173.014" height="173.014" style="fill:rgb(255,250,209);"/>
    </g>
    <g id="g456" transform="matrix(0.332594,0,0,0.270335,115.837,514.488)">
        <rect id="rect454" x="0" y="0" width="173.014" height="173.014" style="fill:rgb(255,247,179);"/>
    </g>
    <g id="g460" transform="matrix(0.332594,0,0,0.270335,173.38,514.488)">
        <rect id="rect458" x="0" y="0" width="173.014" height="173.014" style="fill:rgb(255,244,143);"/>
    </g>
    <g id="g464" transform="matrix(0.332594,0,0,0.270335,365.102,514.488)">
        <rect id="rect462" x="0" y="0" width="173.014" height="173.014" style="fill:rgb(253,221,78);"/>
    </g>
    <g id="g468" transform="matrix(0.332594,0,0,0.270335,422.646,514.488)">
        <rect id="rect466" x="0" y="0" width="173.014" height="173.014" style="fill:rgb(251,199,70);"/>
    </g>
    <g id="g472" transform="matrix(0.332594,0,0,0.270335,480.189,514.488)">
        <rect id="rect470" x="0" y="0" width="173.014" height="173.014" style="fill:rgb(250,178,61);"/>
    </g>
    <g id="g476" transform="matrix(0.332594,0,0,0.270335,537.732,514.488)">
        <rect id="rect474" x="0" y="0" width="173.014" height="173.014" style="fill:rgb(246,142,50);"/>
    </g>
    <g transform="matrix(0.332594,0,0,0.270335,298.04,514.488)">
        <g id="g480">
            <rect id="rect478" x="0" y="0" width="173.014" height="173.014" style="fill:rgb(255,238,88);"/>
        </g>
    </g>
    <g id="g484" transform="matrix(0.332594,0,0,0.270335,230.923,561.26)">
        <rect id="rect482" x="0" y="0" width="173.014" height="173.014" style="fill:rgb(255,202,40);"/>
    </g>
    <g id="g488" transform="matrix(0.332594,0,0,0.270335,0,561.26)">
        <rect id="rect486" x="0" y="0" width="173.014" height="173.014" style="fill:rgb(255,248,225);"/>
    </g>
    <g id="g492" transform="matrix(0.332594,0,0,0.270335,58.2933,561.26)">
        <rect id="rect490" x="0" y="0" width="173.014" height="173.014" style="fill:rgb(255,236,179);"/>
    </g>
    <g id="g496" transform="matrix(0.332594,0,0,0.270335,115.837,561.26)">
        <rect id="rect494" x="0" y="0" width="173.014" height="173.014" style="fill:rgb(255,224,130);"/>
    </g>
    <g id="g500" transform="matrix(0.332594,0,0,0.270335,173.38,561.26)">
        <rect id="rect498" x="0" y="0" width="173.014" height="173.014" style="fill:rgb(255,213,79);"/>
    </g>
    <g id="g504" transform="matrix(0.332594,0,0,0.270335,365.102,561.26)">
        <rect id="rect502" x="0" y="0" width="173.014" height="173.014" style="fill:rgb(255,179,0);"/>
    </g>
    <g id="g508" transform="matrix(0.332594,0,0,0.270335,422.646,561.26)">
        <rect id="rect506" x="0" y="0" width="173.014" height="173.014" style="fill:rgb(255,160,0);"/>
    </g>
    <g id="g512" transform="matrix(0.332594,0,0,0.270335,480.189,561.26)">
        <rect id="rect510" x="0" y="0" width="173.014" height="173.014" style="fill:rgb(255,143,0);"/>
    </g>
    <g id="g516" transform="matrix(0.332594,0,0,0.270335,537.732,561.26)">
        <rect id="rect514" x="0" y="0" width="173.014" height="173.014" style="fill:rgb(255,111,0);"/>
    </g>
    <g transform="matrix(0.332594,0,0,0.270335,297.929,561.26)">
        <g id="g520">
            <rect id="rect518" x="0" y="0" width="173.014" height="173.014" style="fill:rgb(252,194,27);"/>
        </g>
    </g>
    <g id="g524" transform="matrix(0.332594,0,0,0.270335,230.923,608.031)">
        <rect id="rect522" x="0" y="0" width="173.014" height="173.014" style="fill:rgb(255,167,38);"/>
    </g>
    <g id="g528" transform="matrix(0.332594,0,0,0.270335,0,608.031)">
        <rect id="rect526" x="0" y="0" width="173.014" height="173.014" style="fill:rgb(255,243,224);"/>
    </g>
    <g id="g532" transform="matrix(0.332594,0,0,0.270335,58.2933,608.031)">
        <rect id="rect530" x="0" y="0" width="173.014" height="173.014" style="fill:rgb(255,224,178);"/>
    </g>
    <g id="g536" transform="matrix(0.332594,0,0,0.270335,115.837,608.031)">
        <rect id="rect534" x="0" y="0" width="173.014" height="173.014" style="fill:rgb(255,204,128);"/>
    </g>
    <g id="g540" transform="matrix(0.332594,0,0,0.270335,173.38,608.031)">
        <rect id="rect538" x="0" y="0" width="173.014" height="173.014" style="fill:rgb(255,183,77);"/>
    </g>
    <g id="g544" transform="matrix(0.332594,0,0,0.270335,365.102,608.031)">
        <rect id="rect542" x="0" y="0" width="173.014" height="173.014" style="fill:rgb(247,140,4);"/>
    </g>
    <g id="g548" transform="matrix(0.332594,0,0,0.270335,422.646,608.031)">
        <rect id="rect546" x="0" y="0" width="173.014" height="173.014" style="fill:rgb(241,124,4);"/>
    </g>
    <g id="g552" transform="matrix(0.332594,0,0,0.270335,480.189,608.031)">
        <rect id="rect550" x="0" y="0" width="173.014" height="173.014" style="fill:rgb(239,108,0);"/>
    </g>
    <g id="g556" transform="matrix(0.332594,0,0,0.270335,537.732,608.031)">
        <rect id="rect554" x="0" y="0" width="173.014" height="173.014" style="fill:rgb(230,81,0);"/>
    </g>
    <g transform="matrix(0.106799,0,0,0.171458,156.91,608.032)">
        <g id="g560">
            <rect id="rect558" x="1321.43" y="0" width="538.802" height="272.788" style="fill:rgb(247,147,41);"/>
        </g>
    </g>
    <g id="g564" transform="matrix(0.332594,0,0,0.270335,230.923,654.803)">
        <rect id="rect562" x="0" y="0" width="173.014" height="173.014" style="fill:rgb(242,141,94);"/>
    </g>
    <g id="g568" transform="matrix(0.332594,0,0,0.270335,0,654.803)">
        <rect id="rect566" x="0" y="0" width="173.014" height="173.014" style="fill:rgb(251,236,231);"/>
    </g>
    <g id="g572" transform="matrix(0.332594,0,0,0.270335,58.2933,654.803)">
        <rect id="rect570" x="0" y="0" width="173.014" height="173.014" style="fill:rgb(255,206,188);"/>
    </g>
    <g id="g576" transform="matrix(0.332594,0,0,0.270335,115.837,654.803)">
        <rect id="rect574" x="0" y="0" width="173.014" height="173.014" style="fill:rgb(255,176,145);"/>
    </g>
    <g id="g580" transform="matrix(0.332594,0,0,0.270335,173.38,654.803)">
        <rect id="rect578" x="0" y="0" width="173.014" height="173.014" style="fill:rgb(255,147,101);"/>
    </g>
    <g id="g584" transform="matrix(0.332594,0,0,0.270335,365.102,654.803)">
        <rect id="rect582" x="0" y="0" width="173.014" height="173.014" style="fill:rgb(231,102,43);"/>
    </g>
    <g id="g588" transform="matrix(0.332594,0,0,0.270335,422.646,654.803)">
        <rect id="rect586" x="0" y="0" width="173.014" height="173.014" style="fill:rgb(230,86,25);"/>
    </g>
    <g id="g592" transform="matrix(0.332594,0,0,0.270335,480.189,654.803)">
        <rect id="rect590" x="0" y="0" width="173.014" height="173.014" style="fill:rgb(216,76,21);"/>
    </g>
    <g id="g596" transform="matrix(0.332594,0,0,0.270335,537.732,654.803)">
        <rect id="rect594" x="0" y="0" width="173.014" height="173.014" style="fill:rgb(191,63,12);"/>
    </g>
    <g transform="matrix(0.332594,0,0,0.270335,298.04,654.803)">
        <g id="g600">
            <rect id="rect598" x="0" y="0" width="173.014" height="173.014" style="fill:rgb(237,108,48);"/>
        </g>
    </g>
    <g id="g604" transform="matrix(0.332594,0,0,0.270335,230.923,701.575)">
        <rect id="rect602" x="0" y="0" width="173.014" height="173.014" style="fill:rgb(189,189,189);"/>
    </g>
    <g id="g608" transform="matrix(0.332594,0,0,0.270335,0,701.575)">
        <rect id="rect606" x="0" y="0" width="173.014" height="173.014" style="fill:rgb(250,250,250);"/>
    </g>
    <g id="g612" transform="matrix(0.332594,0,0,0.270335,58.2933,701.575)">
        <rect id="rect610" x="0" y="0" width="173.014" height="173.014" style="fill:rgb(245,245,245);"/>
    </g>
    <g id="g616" transform="matrix(0.332594,0,0,0.270335,115.837,701.575)">
        <rect id="rect614" x="0" y="0" width="173.014" height="173.014" style="fill:rgb(238,238,238);"/>
    </g>
    <g id="g620" transform="matrix(0.332594,0,0,0.270335,173.38,701.575)">
        <rect id="rect618" x="0" y="0" width="173.014" height="173.014" style="fill:rgb(224,224,224);"/>
    </g>
    <g id="g624" transform="matrix(0.332594,0,0,0.270335,365.102,701.575)">
        <rect id="rect622" x="0" y="0" width="173.014" height="173.014" style="fill:rgb(117,117,117);"/>
    </g>
    <g id="g628" transform="matrix(0.332594,0,0,0.270335,422.646,701.575)">
        <rect id="rect626" x="0" y="0" width="173.014" height="173.014" style="fill:rgb(97,97,97);"/>
    </g>
    <g id="g632" transform="matrix(0.332594,0,0,0.270335,480.189,701.575)">
        <rect id="rect630" x="0" y="0" width="173.014" height="173.014" style="fill:rgb(66,66,66);"/>
    </g>
    <g id="g636" transform="matrix(0.332594,0,0,0.270335,537.732,701.575)">
        <rect id="rect634" x="0" y="0" width="173.014" height="173.014" style="fill:rgb(33,33,33);"/>
    </g>
    <g transform="matrix(0.332594,0,0,0.270335,298.097,701.575)">
        <g id="g640">
            <rect id="rect638" x="0" y="0" width="173.014" height="173.014" style="fill:rgb(158,158,158);"/>
        </g>
    </g>
    <g id="g644" transform="matrix(0.332594,0,0,0.270335,230.923,748.346)">
        <rect id="rect642" x="0" y="0" width="173.014" height="173.014" style="fill:rgb(134,168,180);"/>
    </g>
    <g id="g648" transform="matrix(0.332594,0,0,0.270335,0,748.346)">
        <rect id="rect646" x="0" y="0" width="173.014" height="173.014" style="fill:rgb(236,240,241);"/>
    </g>
    <g id="g652" transform="matrix(0.332594,0,0,0.270335,58.2933,748.346)">
        <rect id="rect650" x="0" y="0" width="173.014" height="173.014" style="fill:rgb(203,219,224);"/>
    </g>
    <g id="g656" transform="matrix(0.332594,0,0,0.270335,115.837,748.346)">
        <rect id="rect654" x="0" y="0" width="173.014" height="173.014" style="fill:rgb(175,199,207);"/>
    </g>
    <g id="g660" transform="matrix(0.332594,0,0,0.270335,173.38,748.346)">
        <rect id="rect658" x="0" y="0" width="173.014" height="173.014" style="fill:rgb(147,177,187);"/>
    </g>
    <g id="g664" transform="matrix(0.332594,0,0,0.270335,365.102,748.346)">
        <rect id="rect662" x="0" y="0" width="173.014" height="173.014" style="fill:rgb(90,129,142);"/>
    </g>
    <g id="g668" transform="matrix(0.332594,0,0,0.270335,422.646,748.346)">
        <rect id="rect666" x="0" y="0" width="173.014" height="173.014" style="fill:rgb(75,107,117);"/>
    </g>
    <g id="g672" transform="matrix(0.332594,0,0,0.270335,480.189,748.346)">
        <rect id="rect670" x="0" y="0" width="173.014" height="173.014" style="fill:rgb(62,82,89);"/>
    </g>
    <g id="g676" transform="matrix(0.332594,0,0,0.270335,537.732,748.346)">
        <rect id="rect674" x="0" y="0" width="173.014" height="173.014" style="fill:rgb(43,59,64);"/>
    </g>
    <g transform="matrix(0.332594,0,0,0.270335,298.04,748.346)">
        <g id="g680">
            <rect id="rect678" x="0" y="0" width="173.014" height="173.014" style="fill:rgb(101,147,162);"/>
        </g>
    </g>
    <g id="g684" transform="matrix(0.332594,0,0,0.270335,230.923,795.118)">
        <rect id="rect682" x="0" y="0" width="173.014" height="173.014" style="fill:rgb(141,107,99);"/>
    </g>
    <g id="g688" transform="matrix(0.332594,0,0,0.270335,0,795.118)">
        <rect id="rect686" x="0" y="0" width="173.014" height="173.014" style="fill:rgb(239,235,233);"/>
    </g>
    <g id="g692" transform="matrix(0.332594,0,0,0.270335,58.2933,795.118)">
        <rect id="rect690" x="0" y="0" width="173.014" height="173.014" style="fill:rgb(215,203,200);"/>
    </g>
    <g id="g696" transform="matrix(0.332594,0,0,0.270335,115.837,795.118)">
        <rect id="rect694" x="0" y="0" width="173.014" height="173.014" style="fill:rgb(188,169,164);"/>
    </g>
    <g id="g700" transform="matrix(0.332594,0,0,0.270335,173.38,795.118)">
        <rect id="rect698" x="0" y="0" width="173.014" height="173.014" style="fill:rgb(161,134,127);"/>
    </g>
    <g id="g704" transform="matrix(0.332594,0,0,0.270335,365.102,795.118)">
        <rect id="rect702" x="0" y="0" width="173.014" height="173.014" style="fill:rgb(109,74,65);"/>
    </g>
    <g id="g708" transform="matrix(0.332594,0,0,0.270335,422.646,795.118)">
        <rect id="rect706" x="0" y="0" width="173.014" height="173.014" style="fill:rgb(93,64,55);"/>
    </g>
    <g id="g712" transform="matrix(0.332594,0,0,0.270335,480.189,795.118)">
        <rect id="rect710" x="0" y="0" width="173.014" height="173.014" style="fill:rgb(78,52,46);"/>
    </g>
    <g id="g716" transform="matrix(0.332594,0,0,0.270335,537.732,795.118)">
        <rect id="rect714" x="0" y="0" width="173.014" height="173.014" style="fill:rgb(62,39,35);"/>
    </g>
    <g transform="matrix(0.332594,0,0,0.270335,298.04,795.118)">
        <g id="g720">
            <rect id="rect718" x="0" y="0" width="173.014" height="173.014" style="fill:rgb(133,92,82);"/>
        </g>
    </g>
</svg>
